<svg fill="white" xmlns="http://www.w3.org/2000/svg" width="64pt" height="64pt" style="isolation:isolate" viewBox="0 0 64 64" id="music">
  <defs>
    <clipPath id="a">
      <rect width="64" height="64"></rect>
    </clipPath>
  </defs>
  <g clip-path="url(#a)">
    <path d=" M 25.338 52.073 L 25.338 25.389 C 25.338 23.221 27.008 20.904 29.065 20.219 L 53.039 12.227 C 55.096 11.542 56.766 12.745 56.766 14.913 L 56.766 34.282 C 56.766 35.728 55.606 36.723 54.177 36.504 Q 51.396 36.078 48.345 36.863 C 41.991 38.499 37.71 43.236 38.791 47.435 C 39.872 51.635 45.908 53.716 52.262 52.081 C 58.164 50.562 62.277 46.367 61.967 42.412 L 62 4.438 C 62.002 2.269 60.355 1.127 58.325 1.889 L 23.779 14.844 C 21.748 15.605 20.1 17.983 20.1 20.151 L 20.1 43.978 C 20.1 45.424 18.94 46.422 17.511 46.206 Q 14.755 45.791 11.721 46.572 C 5.367 48.207 1.086 52.944 2.167 57.144 C 3.248 61.343 9.284 63.425 15.638 61.789 C 21.563 60.264 25.686 56.041 25.338 52.073 Z "></path>
  </g>
</svg>